<svg xmlns="http://www.w3.org/2000/svg" viewBox="0 0 539.72 453.27"><defs><style>.cls-1,.cls-10,.cls-11,.cls-12,.cls-13,.cls-14,.cls-15,.cls-16,.cls-18,.cls-19,.cls-2,.cls-20,.cls-21,.cls-25,.cls-26,.cls-28,.cls-29,.cls-3,.cls-30,.cls-31,.cls-32,.cls-33,.cls-34,.cls-35,.cls-41,.cls-43,.cls-44,.cls-46,.cls-47,.cls-50,.cls-51,.cls-52,.cls-53,.cls-54,.cls-55,.cls-56,.cls-58,.cls-59,.cls-60,.cls-61,.cls-62,.cls-63,.cls-64,.cls-65,.cls-66,.cls-67,.cls-68,.cls-69,.cls-7,.cls-70,.cls-71,.cls-72,.cls-73,.cls-74,.cls-76,.cls-77,.cls-78,.cls-8,.cls-80,.cls-81,.cls-82,.cls-83,.cls-85,.cls-9{fill:none;}.cls-1,.cls-2{stroke:#973b8e;}.cls-1,.cls-10,.cls-12,.cls-13,.cls-18,.cls-19,.cls-21,.cls-22,.cls-25,.cls-26,.cls-29,.cls-31,.cls-32,.cls-34,.cls-35,.cls-37,.cls-44,.cls-46,.cls-50,.cls-51,.cls-52,.cls-53,.cls-54,.cls-55,.cls-56,.cls-6,.cls-62,.cls-63,.cls-66,.cls-67,.cls-69,.cls-7,.cls-70,.cls-71,.cls-75,.cls-77,.cls-78,.cls-79,.cls-8,.cls-80,.cls-83,.cls-9{stroke-linecap:round;}.cls-1,.cls-12,.cls-13,.cls-18,.cls-2,.cls-21,.cls-22,.cls-25,.cls-26,.cls-29,.cls-31,.cls-32,.cls-34,.cls-37,.cls-44,.cls-46,.cls-50,.cls-51,.cls-52,.cls-53,.cls-54,.cls-55,.cls-56,.cls-6,.cls-60,.cls-61,.cls-62,.cls-63,.cls-65,.cls-66,.cls-68,.cls-7,.cls-70,.cls-71,.cls-74,.cls-75,.cls-77,.cls-78,.cls-79,.cls-8,.cls-80,.cls-83,.cls-9{stroke-linejoin:round;}.cls-1,.cls-11,.cls-15,.cls-16,.cls-19,.cls-25,.cls-34,.cls-44,.cls-46,.cls-47,.cls-49,.cls-50,.cls-52,.cls-53,.cls-55,.cls-69,.cls-71,.cls-77,.cls-8,.cls-80,.cls-83{stroke-width:3px;}.cls-2,.cls-33,.cls-59,.cls-61,.cls-64,.cls-65,.cls-68,.cls-74{stroke-linecap:square;}.cls-2,.cls-63,.cls-64,.cls-67{stroke-width:8px;}.cls-3{stroke:#b80f7c;}.cls-10,.cls-11,.cls-14,.cls-15,.cls-16,.cls-19,.cls-20,.cls-23,.cls-28,.cls-3,.cls-30,.cls-35,.cls-41,.cls-43,.cls-45,.cls-47,.cls-49,.cls-57,.cls-58,.cls-69,.cls-72,.cls-73,.cls-81,.cls-82,.cls-85{stroke-miterlimit:10;}.cls-4{fill:#d01917;}.cls-5,.cls-57{fill:#e7650b;}.cls-6{fill:#c6802b;}.cls-13,.cls-16,.cls-28,.cls-29,.cls-30,.cls-6,.cls-71,.cls-74{stroke:#1d1d1b;}.cls-10,.cls-11,.cls-12,.cls-57,.cls-58,.cls-69,.cls-7,.cls-73,.cls-8{stroke:#e7650b;}.cls-41,.cls-56,.cls-68,.cls-7,.cls-72,.cls-73,.cls-75{stroke-width:4px;}.cls-9{stroke:#b97214;}.cls-10,.cls-12,.cls-13,.cls-14,.cls-18,.cls-20,.cls-21,.cls-22,.cls-26,.cls-28,.cls-35,.cls-37,.cls-54,.cls-59,.cls-62,.cls-70,.cls-79,.cls-81,.cls-82,.cls-85,.cls-9{stroke-width:2px;}.cls-14,.cls-18,.cls-35,.cls-37,.cls-45,.cls-79,.cls-80{stroke:#e6311f;}.cls-15{stroke:#fec931;}.cls-17,.cls-45,.cls-49,.cls-79{fill:#e6311f;}.cls-19{stroke:#fbbc1e;}.cls-20{stroke:#a64090;}.cls-21,.cls-23,.cls-25{stroke:#8b1812;}.cls-22,.cls-23,.cls-24{fill:#8b1812;}.cls-22{stroke:#fff;}.cls-26{stroke:#a92e88;}.cls-27{fill:#a92e88;}.cls-31{stroke:#eb564a;}.cls-31,.cls-32,.cls-66{stroke-width:5px;}.cls-32,.cls-33,.cls-34{stroke:#df91bd;}.cls-33,.cls-59,.cls-64,.cls-67{stroke-linejoin:bevel;}.cls-33,.cls-61,.cls-65{stroke-width:7px;}.cls-36{fill:#e52a1f;}.cls-37,.cls-38{fill:#cc1236;}.cls-39{fill:#e65d0e;}.cls-40{fill:#a25f15;}.cls-41,.cls-43,.cls-44{stroke:#8d3c8f;}.cls-42{fill:#8d3c8f;}.cls-46,.cls-47{stroke:#d05415;}.cls-48{fill:#fff;}.cls-49{stroke:#e53112;}.cls-50{stroke:#6e226a;}.cls-51,.cls-85{stroke:#a21916;}.cls-52,.cls-62,.cls-63,.cls-64{stroke:#d01917;}.cls-53{stroke:#cd5b9e;}.cls-54,.cls-55,.cls-65,.cls-66,.cls-67{stroke:#e41d13;}.cls-56{stroke:#8a4192;}.cls-57{stroke-width:10px;}.cls-58,.cls-60,.cls-78{stroke-width:6px;}.cls-59,.cls-60,.cls-61,.cls-68,.cls-70{stroke:#ba1818;}.cls-72{stroke:#000;}.cls-75{fill:#c5628e;stroke:#c96d96;}.cls-77,.cls-78{stroke:#f39faf;}.cls-81{stroke:#e7560e;}.cls-82{stroke:#f3944b;}.cls-83{stroke:#e7aa00;}.cls-84{fill:#cf7c11;}.cls-86{fill:#991914;}</style></defs><g id="Calque_27" data-name="Calque 27"><path class="cls-1" d="M135.78,199.24c.85.57,35.16-3.65,35.16-3.65" transform="translate(-134.28 -27.45)"/><path class="cls-2" d="M163.63,192.87V173.46L175.72,165l1.69-1.41" transform="translate(-134.28 -27.45)"/><path class="cls-1" d="M174.88,164.37c4.64-4.82,6.2-8.62,6.75-11.25.22-1.1.7-3.76,2.78-5.27a5.49,5.49,0,0,1,2.84-.92,66.55,66.55,0,0,0,7.59-1.12l1.41-2.82" transform="translate(-134.28 -27.45)"/><path class="cls-3" d="M184.44,150s-1.69,1.68,3.65,1.12,11-1.12,11-1.12a5.66,5.66,0,0,1,4.22-.29,8.15,8.15,0,0,0,3.94.57" transform="translate(-134.28 -27.45)"/></g><g id="Calque_43" data-name="Calque 43"><path class="cls-4" d="M393.5,198.59s8.06,5.25,8.16,5.53-9.75,13.5-9.75,13.5l-2.82,1.5-3.28-3.56" transform="translate(-134.28 -27.45)"/><path class="cls-5" d="M391.44,234.4l-2.35-14.91s1.79,1.79,4.5-1.68S401.94,205,401.94,205a1.85,1.85,0,0,0-1.13-2c-1.4-.75-6.09-3.56-5.72-3.56s3.66.1,3.66.1,6.56,5.15,6.56,5.53a32.58,32.58,0,0,1-2.9,5.9c-1.13,1.69-4.88,6.28-4.78,7.32a37.16,37.16,0,0,0,3.46,8c1,1.5,1.5,1.5,1.5,1.5a13.16,13.16,0,0,0-1.59,1.41c-.47.56-2.81,2.63-2.81,2.63l-4.78,3.56-1.13.84Z" transform="translate(-134.28 -27.45)"/></g><g id="Calque_48" data-name="Calque 48"><line class="cls-6" x1="79.97" y1="157.83" x2="84.47" y2="161.95"/></g><g id="Calque_28" data-name="Calque 28"><line class="cls-7" x1="28.5" y1="180.24" x2="35.53" y2="201.33"/><line class="cls-8" x1="38.63" y1="189.52" x2="31.03" y2="190.08"/></g><g id="Calque_29" data-name="Calque 29"><path class="cls-9" d="M204.13,197.56s37.68-3.94,38.53-3.66,3.09-4.5,4.78-5.34a46,46,0,0,1,5.62-2l1.41.56" transform="translate(-134.28 -27.45)"/><path class="cls-10" d="M214.53,183.21s-.28-14.34,1.13-18.56,3.09-8.16,3.09-8.16" transform="translate(-134.28 -27.45)"/><path class="cls-11" d="M211.16,184.78s.28-12.66.28-13.79" transform="translate(-134.28 -27.45)"/><path class="cls-8" d="M204.41,184.62s-2-3.38-.57-5.34,2.25-2.25,2.25-2.25" transform="translate(-134.28 -27.45)"/></g><g id="Calque_40" data-name="Calque 40"><path class="cls-12" d="M256.94,77.21,267.75,95.9" transform="translate(-134.28 -27.45)"/></g><g id="Calque_75" data-name="Calque 75"><path class="cls-8" d="M562.63,144.78l11.62,16.12s-.37.75,5.25-.75S593,156,593,156s11.25,4.87,10.88,6,7.5-.38,7.5-.38-11.63-18-14.25-21.37-9.75-13.5-12.75-16.88-3-9.75-3-9.75,2.62-1.87,6,1.5,9,8.63,9,8.63l-22.13-18S587.38,89.28,587,90.4" transform="translate(-134.28 -27.45)"/><path class="cls-8" d="M608.38,138s5.62,7.87,6.75,10.12c.25.51,1.23.62,2.59.48,4.68-.48,13.91-3.85,13.91-3.85l-15.38,5.62s3.38,9,3.38,10.5" transform="translate(-134.28 -27.45)"/><path class="cls-8" d="M576.13,117.4s-16.5-14.62-21.75-16.5-25.13-6.37-25.13-6.37l5.63,11.25S557,116.28,557,117.4s-2.62,6.38-2.62,6.38l10.5-10.5s-25.5-13.88-25.13-12.75,36.38,20.25,36.38,20.25" transform="translate(-134.28 -27.45)"/><line class="cls-8" x1="441.84" y1="66.33" x2="430.22" y2="77.58"/><path class="cls-5" d="M654.88,167.28s-9-5.25-10.13-7.13-2.25-9.75-4.12-14.62-7.88-16.88-9.75-21-1.5-7.88-.38-9.38.38-5.62-1.12-5.62-1.88,5.25-3.38,7.5-4.12,4.5-4.12,1.87.75-3,1.87-6.37,1.13-4.88,1.88-6-12.75-12.38-15.75-15.38-4.5-6-6.38-7.12-5.25-3.75-6.37-4.13,1.5-3.75,2.25-5.25,3.37-.37,4.5,1.13,1.87,1.87,2.25.75-2.25-6-3-7.13,1.5-3.37,3-3.37,2.62,3.75,3.37,4.87A2.42,2.42,0,0,0,611.38,72s-2.63-4.5-2.25-8.25,13.5-19.13,13.5-19.13l6.75-9.37,3-2.25a5.6,5.6,0,0,1,4.87-2.25c3,.37,3.38.75,6.38.75a15.93,15.93,0,0,0,5.62-1.13s1.88-1.5,0,1.5a89.17,89.17,0,0,1-5.62,7.5s-.75-.75-3.38-.37-4.87.37-6.75,3S621.13,57.4,621.13,57.4l-4.88,4.13s-1.5.37-.75,3a38.78,38.78,0,0,0,1.88,6c.75,1.5-5.63,9.75-5.63,9.75L609.5,84.4s-.75.38,1.13,3,9.37,6.38,11.62,9.38S632,106.9,632,106.9l7.5,9,8.25,14.63a8.83,8.83,0,0,1,1.88-2.72c1.43-1.42,3.09-2,7.5-2.91,3.8-.75,6.84-1.21,9.75-1.5,3.75-.37,6.37-.75,6.37-.75l-.37,4.13-15.38,4.5-4.12,1.87s-2.63.38-1.5.75-3.75-1.87-3.75-1.87h0" transform="translate(-134.28 -27.45)"/><polygon class="cls-5" points="518.34 107.95 538.59 99.33 539.72 102.7 518.72 109.83 518.34 107.95"/><path class="cls-5" d="M654.88,140.65s8.62-6,12.75-6.37,5.62,1.5,5.62,1.5c-.37,1.87-5.25,7.12-6.37,7.5a11.73,11.73,0,0,0-3,2.25l-6-1.88-3.75,1.13v-2.25Z" transform="translate(-134.28 -27.45)"/><path class="cls-8" d="M595.81,301.9l2.25,2.81-7.5,4.88,1.5,1.87S613.25,300,612.69,300s-1.88-2.25-1.88-2.25l-9.37,5.43-2.81-2.81Z" transform="translate(-134.28 -27.45)"/><path class="cls-8" d="M597.73,301.55c2.38,2,3.42,3.34,3.1,3.94-.2.37-.93.46-2.18.28" transform="translate(-134.28 -27.45)"/></g><g id="Calque_76" data-name="Calque 76"><path class="cls-13" d="M572,154.15l16.13,1.5,9-7.12,32.25,1.12,4.5,3.38,9.75,1.12a118.62,118.62,0,0,0,14.25-5.62l11.25-5.63S640.63,144,635.38,144s-34.88.75-34.88.75l-9.75,1.12-3.37,5.63-3.75-.75,3-6L584,143.65,580.63,150l-4.13-.38,1.13-4.5-6.38-.37" transform="translate(-134.28 -27.45)"/><polyline class="cls-13" points="472.59 122.95 493.59 123.33 496.22 127.08 466.59 127.08"/></g><g id="Calque_4" data-name="Calque 4"><path class="cls-14" d="M543.43,321.62c-11.56,3.59-17.9,3.36-21.6,2.28-1-.3-4.49-1.42-6.24.2a4.44,4.44,0,0,0-1.05,3.52" transform="translate(-134.28 -27.45)"/><path class="cls-15" d="M542.43,322.62" transform="translate(-134.28 -27.45)"/><path class="cls-8" d="M516.59,40.9a142.05,142.05,0,0,1,59.65,271" transform="translate(-134.28 -27.45)"/><path class="cls-16" d="M516.59,40.9" transform="translate(-134.28 -27.45)"/><path class="cls-16" d="M446.75,306.63" transform="translate(-134.28 -27.45)"/><path class="cls-14" d="M494,327.07a32,32,0,0,0-3.23-.14c-1.73,0-2.46.17-4.08.28s-1.35,0-5.58,0c-2.42,0-2.46,0-5.38,0s-4.38,0-4.74,0c-1.74-.16-2.64-.45-7.69-1.87L458.38,324c-4.27-1.19-7-1.87-8.3-2.25-5-1.46-9.33-2.94-14.35-4.78-5.61-2.07-13-5-21.79-9.05" transform="translate(-134.28 -27.45)"/><circle class="cls-17" cx="369.52" cy="300.47" r="1.83"/><path class="cls-18" d="M514.59,326.17a10.26,10.26,0,0,1-10.26,10.26c-4.9,0-8.76-4-9.88-7.57a8.69,8.69,0,0,1-.33-1.57" transform="translate(-134.28 -27.45)"/><path class="cls-19" d="M517.4,325.35" transform="translate(-134.28 -27.45)"/></g><g id="Calque_25" data-name="Calque 25"><path class="cls-20" d="M200.38,142.15,199.25,147l6.38,1.5s2.25-2.25,4.12-7.5l1.88-5.25" transform="translate(-134.28 -27.45)"/></g><g id="Calque_77" data-name="Calque 77"><path class="cls-13" d="M663.5,135.78,555.13,138.4,552.5,120l6.38-3,3,20.25s-3.13-13.76-6.23-26l-.15-.62c-1.89-7.43-3.75-14.2-4.87-16.87A106.3,106.3,0,0,0,542,78.4L538.63,81s4.5,10.5,6.37,13.87-3.75,13.13-3.75,14.25,1.5,10.88,2.63,12,4.12.75,7.12-4.5a19.43,19.43,0,0,1,2.53-4" transform="translate(-134.28 -27.45)"/><path class="cls-13" d="M528.13,85.9s6.75,13.5,8.25,17.25,1.87,4.13,3.37,0,4.13-6.37,2.63-8.62-6.75-9.75-6.75-9.75l-2.25-1.5Z" transform="translate(-134.28 -27.45)"/><path class="cls-13" d="M562.25,96.78l4.13-4.5-13.5-23.63a39.88,39.88,0,0,0-1.13,5.25" transform="translate(-134.28 -27.45)"/><path class="cls-21" d="M542,78.4s-3.26-4.2-6.38-8.1c-2.77-3.47-5.44-6.7-5.62-6.52-.37.37,46.5-30.75,46.5-30.75" transform="translate(-134.28 -27.45)"/><polyline class="cls-22" points="399.47 43.45 382.22 53.95 388.22 55.45 404.34 47.58"/><polyline class="cls-13" points="410.34 28.83 414.84 35.2 415.22 42.7"/><path class="cls-13" d="M547,53.37c3,4.24,5.44,7.71,7,10l8.63,12.75c.37-.25,1-.62,1.68-1,.53-.3.78-.41,1.6-.84,2-1.07,2.19-1.26,2.25-1.5.13-.58-.48-1.11-1.13-1.79a42.87,42.87,0,0,1-2.9-4c-.4-.51-1.36-1.87-3.29-4.59-2.85-4-6.36-9.41-8.34-12.47" transform="translate(-134.28 -27.45)"/><line class="cls-13" x1="420.66" y1="84.14" x2="418.88" y2="85.74"/><path class="cls-21" d="M598.63,78S576.5,65.65,566.75,62.28s-25.5-9.38-25.5-9.38" transform="translate(-134.28 -27.45)"/><path class="cls-23" d="M540.5,55.53l-21-1.88a23.19,23.19,0,0,1-3-2.62c-1.87-1.88-3.75-4.13-3.75-4.13l-1.87-2.25,3,.38s13.5.37,18.37,1.5,8.25.75,9.38,1.87a24.1,24.1,0,0,1,2.62,3.75" transform="translate(-134.28 -27.45)"/><path class="cls-24" d="M491.38,68.28V33.4s-.75-3,.75-1.87.37,2.62,2.62,2.62a90.73,90.73,0,0,1,10.13,0c4.12.38,18.37,2.25,18.37,2.25s1.5-.37,1.88,3-30.75,3-30.75,3V45l10.5-.75s4.12,4.87,5.25,5.62a4.28,4.28,0,0,1,1.5,2.25s-9,.75-10.5.38,1.12,0-1.5-.38a17.24,17.24,0,0,0-5.63.38v5.25l25.88.75,10.12,3s9.38,1.87,12,2.25,13.88,3.37,13.88,3.37,4.5,14.25,3.75,16.13-3.38,2.62-7.13.75-6.37-3.38-9.37-3.75-.38-.75-6.75-1.13a57.64,57.64,0,0,1-10.88-1.5c-4.12-.75-.75-1.12-5.62-1.5s-8.25-1.87-7.5-4.12-.75-3.38,1.87-4.5,6.38-1.13,10.13,0,7.12,2.25,7.12,2.25l3.75,3.75L551,79.9s6.38,3.38,5.25.75a31.38,31.38,0,0,1-1.5-4.12s6-4.13-13.12-9.38S530.75,66,530.75,66l-15-1.13L515,62.28s1.13-1.13-1.87-1.13-3.38-.37-3.38,5.25a52.74,52.74,0,0,1-.75,9.38s3,.75-.37,2.25a58.73,58.73,0,0,0-6.38,3.37s-.37,1.5-1.12-3,0-17.62,0-17.62h-6.75L494,68.65Z" transform="translate(-134.28 -27.45)"/><path class="cls-17" d="M656.13,214.15s2.25-10.5,2.62-15-.75-3,3-2.25A64.1,64.1,0,0,0,671.5,198c1.5,0,1.5,9.37,1.5,9.37s-1.12.38-2.25-2.25-2.62-2.62-2.62-2.62a8.66,8.66,0,0,0,.37,4.12c.75,2.63.75,4.5-.75,3.38s-2.25-2.25-4.12-1.13A9,9,0,0,1,659.5,210s-1.5,2.25-.37,2.62,4.12,0,6,.38,6.75-.38,6.75-.38a23.47,23.47,0,0,1,.37,7.13c-.37,4.12,0,1.87-3.37,1.87s-4.5.75-5.63-1.12.38-2.63-1.5-4.13-2.25-3-3-1.12a2,2,0,0,1-2.62,1.12Z" transform="translate(-134.28 -27.45)"/><line class="cls-25" x1="444.84" y1="59.77" x2="490.97" y2="2.95"/></g><g id="Calque_74" data-name="Calque 74"><path class="cls-26" d="M413.75,285.78l23.63-30.38a88.33,88.33,0,0,1,10.12-2.62c3-.38,4.13-3.75,5.63-4.88s1.87-2.25,4.87-1.5,12,3.38,16.13,4.88a24.36,24.36,0,0,1,5.62,2.62l-22.12,36.38" transform="translate(-134.28 -27.45)"/><path class="cls-26" d="M465.88,278.65s16.87,3,24.37,3a245.06,245.06,0,0,0,25.13-1.5c5.62-.75,10.87-1.5,16.5-3.75s6.75-4.12,6.75-4.12L522.5,244.53,500,248.65" transform="translate(-134.28 -27.45)"/><line class="cls-26" x1="292.22" y1="253.45" x2="311.34" y2="232.08"/><path class="cls-27" d="M564.13,255.78S576.5,242.28,581,237.4a81.82,81.82,0,0,0,8.63-11.25c1.5-2.25,3.37-1.5,6.37-3s4.13-2.62,7.13-8.62,1.87-6.75,4.12-6.38a26,26,0,0,1,4.88,1.5c1.12,3.38,0,5.63-1.13,7.88s-2.62,3-3.37,6.75a66.14,66.14,0,0,1-1.88,7.12,26.53,26.53,0,0,1-8.62,3.38c-4.5.75-6,0-7.88,1.87s-19.5,19.13-19.5,19.13-2.25,1.5-3,1.12S564.13,255.78,564.13,255.78Z" transform="translate(-134.28 -27.45)"/><path class="cls-27" d="M567.13,262.15l10.12-9.37,1.88-1.13,1.5,2.63s1.12,7.87.75,9a27.39,27.39,0,0,1-2.63,4.12l-3.37,1.5-3-1.5s-5.63-3.37-4.5-3.37S567.13,262.15,567.13,262.15Z" transform="translate(-134.28 -27.45)"/><path class="cls-27" d="M582.88,247.9l5.25-8.62s3-1.13,7.12-2.25,8.63-2.63,8.63-2.63,3.37-2.62,4.5-5.25,2.25-4.12,3.75-7.5,1.87-4.12,3.75-8.25,2.25-4.5,4.5-4.5,5.25.38,7.5.38,11.62,1.12,11.62,1.12l1.88,1.88-15.75-.38s-1.13,8.25-3,12-4.5,8.25-4.5,8.25L617,234l-7.87,1.12-19.5,24-3.75,3.38H584a16.71,16.71,0,0,1-1.5-6.75C582.5,252,582.88,247.9,582.88,247.9Z" transform="translate(-134.28 -27.45)"/><path class="cls-27" d="M627.13,308.28" transform="translate(-134.28 -27.45)"/><path class="cls-27" d="M590.38,171c.75,3.37,1.12,4.87,1.87,7.5a15.08,15.08,0,0,1,0,7.12c-.37,1.88-2.25,3-2.62,1.5s-3.38-17.25-3.38-17.25l-4.5-12.37-2.62-3.75s-1.5-6.75-3.75-7.88a29.76,29.76,0,0,1-6.75-4.5C566,139.15,557,131.28,557,131.28l-.75-2.25s2.63-5.63,3.75-6a36.4,36.4,0,0,0,4.5-2.63s1.88,1.5,4.13,3.38a31.89,31.89,0,0,0,5.25,3.37s6-1.5,6.75-1.5.75-1.5,2.62.75,5.63,5.63,7.88,8.25,6.37,9.75,6.37,9.75l2.63,3,4.5,6-3.75,1.13a3.65,3.65,0,0,0,1.87,1.87c1.5.75,3,1.13,3.75,3s1.5,4.13,1.5,4.13l-15,4.12-3.37.38s-1.5-1.88.75-2.25,10.5-3,10.5-3l3-.75s-5.25,0-7.13-1.5A22,22,0,0,1,593,156s-1.12,0-.75-2.63,0-3,1.5-4.87,3.38-1.88.38-4.88-8.63-10.5-8.63-10.5l-4.5-4.5a4.51,4.51,0,0,0-3.75.38,5.93,5.93,0,0,1-5.62,0c-1.13-.75-6-4.13-6-4.13l-6.38,4.88,7.88,6.75,3,1.5s.37-.38,3-1.13,4.5-1.12,6.37,0a16.2,16.2,0,0,1,3.75,3.75s1.5,1.5.75,3-3.37,6.38-3.37,6.38,1.12.37,2.62,2.62,3.38,4.5,3.38,5.63,1.87,4.5,1.87,4.5" transform="translate(-134.28 -27.45)"/><path class="cls-27" d="M531.88,315.4c6.06,4.49,9,6.37,15,10.13a15.24,15.24,0,0,0,6.71,2.45,10.5,10.5,0,0,0,4.16-.58c4.88-1.5,5.63-2.62,5.63-2.62l15.37,24.37s2.25,1.5,2.63.38S566,324.78,566,324.78s-.37-1.5,2.25-1.88,9,10.88,11.63,16.13S593,360.4,593,360.4s2.25,4.5,3.38,3.38a3.5,3.5,0,0,0,1.12-2.25,24.75,24.75,0,0,0-4.12-7.5c-3-3.75-10.88-15-10.88-15s-2.62-5.25-4.87-9-2.25-3-3.38-5.25-1.12-3.38.38-3.75,2.25-1.5,3.37.37l6.75,11.25,7.88,13.13,11.25,16.87,12.37,16.13,5.63,8.25a4,4,0,0,0,3.75-1.88c1.5-2.25,3.37-4.87,3.75-8.25s2.62-2.25-.38-5.62-4.12-6.75-7.5-10.88-2.62-5.25-4.87-6.75-1.13,1.13-4.13-.75,1.13.38-5.25-3.75a69.18,69.18,0,0,0-9.75-5.62c-2.25-1.13-2.62-1.13-4.87-5.63a14,14,0,0,0-1.62-2.53,41.62,41.62,0,0,1-2.84-3.52,14,14,0,0,1-.91-1.68,89.6,89.6,0,0,0-5.13-8.77c-1.45-2.27-2.53-3.86-4.13-6-1.12-1.5-2.62-6-4.87-5.25s-9.75,1.88-12.75,3.38-5.25,2.25-7.13,2.25-2.25-.38-4.5-1.88a16.33,16.33,0,0,0-6.75-2.25C537.19,311.17,533.19,314.28,531.88,315.4Z" transform="translate(-134.28 -27.45)"/></g><g id="Calque_73" data-name="Calque 73"><path class="cls-5" d="M486.13,258.78l-7.5,15s-2.63,2.62,4.12,2.62,22.5.75,31.13-1.12,14.62-3,15.37-4.13a4,4,0,0,0-.37-4.12c-.75-.75-32.25,4.87-32.25,4.87s2.25-6.37,3.37-8.62,1.88-3.38.75-4.5S486.13,258.78,486.13,258.78Z" transform="translate(-134.28 -27.45)"/><path class="cls-5" d="M505.08,258.92s-4.54,8.23-3.79,9.36,1.11,1.5,9.74.42,12.39-1.81,13.89-2.55-2.2-9-3.32-9.39S505.08,258.92,505.08,258.92Z" transform="translate(-134.28 -27.45)"/></g><g id="Calque_69" data-name="Calque 69"><polyline class="cls-28" points="395.34 317.2 342.47 242.58 339.84 249.33 348.09 262.45"/><path class="cls-28" d="M493.63,262.15l8.25,10.5L500,280.53l15.75,25.12,9.38.38,6.75,9.37L530,330l-.37,4.12c0,1.13-35.25-53.25-35.25-53.25l2.62-7.5-1.12-2.25-4.13,5.25-3-1.5,4.13-6.37L491,265.15l-3,6.38-4.87-5.63" transform="translate(-134.28 -27.45)"/><polygon class="cls-28" points="370.22 249.33 389.72 276.7 382.59 275.2 373.59 263.58 367.97 252.7 370.22 249.33"/></g><g id="Calque_71" data-name="Calque 71"><path class="cls-8" d="M529.25,234s4.88,1.12,9.75-3.75,7.88-8.25,10.5-10.88A109.37,109.37,0,0,0,557,210" transform="translate(-134.28 -27.45)"/><path class="cls-8" d="M563.38,283.15,536,239.28a98.89,98.89,0,0,0,11.63-9.38,62.83,62.83,0,0,0,11.62-15,102.13,102.13,0,0,0,7.5-17.62,34.43,34.43,0,0,1,2.25-4.13s3.38.75,16.88,2.25,68.25,4.5,68.25,4.5" transform="translate(-134.28 -27.45)"/><path class="cls-8" d="M543.5,239.65a32.19,32.19,0,0,0,7.13-3.75,19.44,19.44,0,0,0,6.37-7.12,48.34,48.34,0,0,1,3-4.88" transform="translate(-134.28 -27.45)"/><path class="cls-8" d="M560.38,265.53l-12-20.63,18.75-18.75-2.25-7.5,4.5-11.62,3-6.38,24,.75,31.87,3h7.5s3.38,3.38,5.25,4.88l1.88,1.5s4.12,1.5,3,2.25" transform="translate(-134.28 -27.45)"/><path class="cls-8" d="M552.88,248.28l20.25-22.13a25.8,25.8,0,0,1,4.87-1.5c2.25-.37,3.38,0,4.5-3s3.38-7.5,3.38-7.5" transform="translate(-134.28 -27.45)"/><line class="cls-8" x1="439.22" y1="190.08" x2="444.09" y2="177.7"/><line class="cls-8" x1="462.84" y1="185.2" x2="466.97" y2="176.2"/></g><g id="Calque_72" data-name="Calque 72"><line class="cls-29" x1="412.97" y1="188.95" x2="450.09" y2="210.33"/><polyline class="cls-29" points="408.84 199.45 421.97 205.45 430.97 205.45 432.47 204.33 412.22 194.58 408.84 197.95"/><path class="cls-29" d="M552.88,215.28l19.5,11.25s-1.88-4.13-2.63-6.38S555.88,210,555.88,210Z" transform="translate(-134.28 -27.45)"/></g><g id="Calque_70" data-name="Calque 70"><path class="cls-30" d="M404.59,278.7a79.25,79.25,0,0,0,7.94,1.47c6.15.83,17,1.55,38.35-3.77,11.74-2.93,26.3-6.75,43.87-16.12,5.63-3,19.88-13.5,28.5-19.5s20.25-18.75,24-24.38L554,204h0" transform="translate(-134.28 -27.45)"/><line class="cls-28" x1="381.84" y1="200.2" x2="379.59" y2="218.58"/><path class="cls-28" d="M521,242.28l1.88-15a54.06,54.06,0,0,0,6.75-6.38c3.75-4.12,5.62-7.12,9-10.87s6.75-7.5,9-11.25,5.25-7.88,5.25-7.88,6.37-1.5,7.5-1.5a1.63,1.63,0,0,1,1.5.75" transform="translate(-134.28 -27.45)"/></g><g id="Calque_44" data-name="Calque 44"><path class="cls-31" d="M201.88,141a21.14,21.14,0,0,0,3.37-5.63c1.65-4.12,1.21-6.9,3-7.87.85-.47,2.36-.62,5.25,1.12l-1.12,5.63" transform="translate(-134.28 -27.45)"/></g><g id="Calque_45" data-name="Calque 45"><line class="cls-32" x1="141.47" y1="116.58" x2="253.22" y2="164.2"/><line class="cls-33" x1="256.59" y1="158.58" x2="222.47" y2="143.2"/><line class="cls-34" x1="170.34" y1="120.7" x2="218.34" y2="143.33"/><polyline class="cls-32" points="180.47 134.95 150.09 142.45 157.59 146.95"/></g><g id="Calque_56" data-name="Calque 56"><path class="cls-35" d="M289.06,307.78c1.69,0,18.57-9.57,18.57-9.57" transform="translate(-134.28 -27.45)"/><path class="cls-36" d="M293,311.46s1.69,1.13,12.94,2.25,56.25-.56,56.25-.56l-5.06-6.75s-16.32,1.69-26.44,1.13-24.75-2.82-24.75-2.82l-10.13,6.19" transform="translate(-134.28 -27.45)"/><path class="cls-14" d="M360.25,312s6.55-.62,8.53-.07-3-6.93-5.2-9.36" transform="translate(-134.28 -27.45)"/><path class="cls-37" d="M334.06,350.09c.11-6.3.09-11.43,0-15-.06-4.76-.17-7.4-.22-13.13-.05-4.61,0-8.39,0-10.87" transform="translate(-134.28 -27.45)"/><path class="cls-38" d="M336.88,318.4a28.28,28.28,0,0,0,0,6,44.28,44.28,0,0,1,.75,6,32.63,32.63,0,0,0,.37,6c.38,1.88,1.5.75,2.25-1.87s1.88-8.25,1.5-10.88a47.07,47.07,0,0,1-.37-5.62Z" transform="translate(-134.28 -27.45)"/><path class="cls-18" d="M296.56,311.65l-9.18-2.81" transform="translate(-134.28 -27.45)"/></g><g id="Calque_57" data-name="Calque 57"><path class="cls-39" d="M243.5,295.15s-5.06-1.12-8.44,2.25-7.31,9.56-9,12.38-1.12,5.06.57,5.06,5.62-8.44,9-11.25,5.06-4.5,5.06-4.5l-10.13,21.37s-17.43,29.82-20.81,33.75-11.25,19.13-11.25,19.13c2.81,1.69,6.19-.56,6.75-2.81s19.69-33.75,19.69-33.75,14.62-24.75,16.31-29.25a106.51,106.51,0,0,1,5.06-10.69Z" transform="translate(-134.28 -27.45)"/><path class="cls-39" d="M250.25,297.4s-3.37,5.06-3.94,6.75,7.32,1.69,7.32,1.69c-1.13,3.37-9.57,2.81-9.57,2.81v2.81l6.75-1.12s-7.31,2.81-9.56,4.5-30.37,52.31-30.37,52.31a2.46,2.46,0,0,0,3.37,1.13c2.25-1.13,15.75-9.57,15.75-9.57l5.63-9.56L230,343.53l15.75-25.32s3.38-2.25,6.19-2.25,3.37.57,6.75-5.62,4.5-7.88,4.5-7.88Z" transform="translate(-134.28 -27.45)"/><polygon class="cls-39" points="100.78 313.83 109.78 296.95 113.72 290.77 117.66 290.77 119.34 293.02 104.72 316.64 102.47 317.77 100.22 316.64 100.78 313.83"/></g><g id="Calque_61" data-name="Calque 61"><polyline class="cls-29" points="242.53 360.52 254.59 345.33 276.09 345.76"/><polyline class="cls-29" points="241.97 360.8 254.03 345.61 275.53 346.04"/><polygon class="cls-5" points="182.34 405.52 159.84 430.27 171.66 430.83 196.41 404.39 212.72 387.52 222.84 386.95 232.97 376.83 236.91 376.27 233.53 382.45 236.34 384.14 241.41 377.39 249.28 367.83 244.22 367.83 240.84 374.02 235.22 373.45 242.53 365.58 231.28 361.64 226.22 374.02 220.59 373.45 192.47 404.39 182.34 405.52"/><path class="cls-40" d="M507.88,399.21" transform="translate(-134.28 -27.45)"/></g><g id="Calque_63" data-name="Calque 63"><polyline class="cls-41" points="162.09 366.14 147.47 381.89 157.03 382.45 180.09 360.52 176.72 357.7 167.16 352.08"/><path class="cls-41" d="M249.13,375.59s12.93,23.62,19.12,30.37,10.69,11.82,12.94,15.19a5,5,0,0,0,5.62,2.25l35.44-32.06" transform="translate(-134.28 -27.45)"/><polyline class="cls-41" points="173.34 379.64 177.28 379.64 189.66 368.39"/><path class="cls-41" d="M249.69,392.46s17.44,24.19,22.5,29.25,34.31,23.63,34.31,23.63" transform="translate(-134.28 -27.45)"/><path class="cls-42" d="M271.63,424.53l-2.82,4.5,2.82,2.81s-4.5,1.69-2.82,1.69-7.31-.57-7.31-.57L210.31,477.4l2.82,1.69s2.81-3.94,5.62-3.38,10.69.57,10.69.57,46.69-39.94,48.37-41.63a17.46,17.46,0,0,0,2.82-3.94Z" transform="translate(-134.28 -27.45)"/><path class="cls-43" d="M442.63,431.28" transform="translate(-134.28 -27.45)"/><path class="cls-44" d="M247.75,428l9.56-9H268l-65.81,60.18" transform="translate(-134.28 -27.45)"/></g><g id="Calque_67" data-name="Calque 67"><path class="cls-14" d="M544.25,67c61.77,9.39,107,60.77,108.09,118.41C653.23,234.08,622.4,280,574.7,300" transform="translate(-134.28 -27.45)"/><path class="cls-14" d="M443.81,305.26c2.23.4,5.51.92,9.5,1.33,3.84.39,7.36.52,14.25.75,8.08.27,14.3.35,15.75.37,5.84.08,5.95,0,10.51.11,5.33.11,5.76.22,7.87.08,1.93-.13,3.87-.12,5.81-.19,2.5-.09,3.57-.14,4.13.57s.07,1.84-.19,3.75a15.27,15.27,0,0,0,.37,5.81" transform="translate(-134.28 -27.45)"/><path class="cls-14" d="M443.51,305.61a8,8,0,0,1,.61-.7" transform="translate(-134.28 -27.45)"/><path class="cls-14" d="M576.5,299.28c-1.66,1-4.2,2.39-7.36,4-4.34,2.22-22,11.26-39,13.67-2.8.39-9.89,1.2-18.4,1.54-2.21.09-6.63.23-19.2-.1-17.79-.46-20.91-.84-29.62-1.5-13.5-1-18.16-2.28-19.91-3.33" transform="translate(-134.28 -27.45)"/><polyline class="cls-18" points="433.59 275.2 409.22 239.2 412.22 232.08 409.59 224.95 400.97 223.83 392.34 211.45 390.84 209.58 361.97 217.08 356.34 226.08 382.22 224.95"/><path class="cls-14" d="M539.75,135.4S557,146.65,559.25,150s5.63,7.12,7.5,10.5,3.38,4.5,5.25,5.25,2.25-.38,3.75,1.87,1.13,7.13,1.88,10.13a13.57,13.57,0,0,0,1.87,4.5" transform="translate(-134.28 -27.45)"/><path class="cls-14" d="M628.25,197.74l-2.25-2-1.88-1.41-2.24-1.69c-.9-.67-2.17-1.64-3.75-2.9H605c-1.5,0-12-.38-16.87-.38s-14.25-.75-14.25-1.87c0-.61-3.58-12.06-4.46-16a18.7,18.7,0,0,1-.29-2.28" transform="translate(-134.28 -27.45)"/><line class="cls-14" x1="308.53" y1="294.39" x2="309.47" y2="277.52"/></g><g id="Calque_68" data-name="Calque 68"><path class="cls-18" d="M568.63,290.65s9-5.25,15.75-9,17.25-12.75,17.25-12.75l16.12-18.37" transform="translate(-134.28 -27.45)"/><path class="cls-18" d="M569,280.15a29.67,29.67,0,0,0,9-4.5c3.75-3,8.63-8.25,12.38-9.75s3.37-1.87,6.37-1.5a14.19,14.19,0,0,1,5.63,2.25" transform="translate(-134.28 -27.45)"/><path class="cls-17" d="M480.5,297.4c-.2,1.41-.36,2.5-.47,3.19-.2,1.27-.11,2.56-.24,3.84,0,.27-.09.88.24,1.13.17.12.31.05,1,.09l.94.09,1.13.1c1.33.1,7.9,0,11.53.19l9.47.37c.8.13,2.56.43,3.28-.47.3-.38.24-.76.09-2.53-.14-1.62-.37-4.87-.37-4.87h0l-15.47-.29Z" transform="translate(-134.28 -27.45)"/><path class="cls-45" d="M508.63,286.9a57.11,57.11,0,0,1,7.87-1.5,106.25,106.25,0,0,0,13.13-1.5c5.62-1.12,9-2.25,10.87-3.37s3.75-2.25,4.13-1.13,1.5,3.38.75,4.88-8.63,3.75-8.63,3.75l-8.62,1.5-3-1.13s.37-1.5-.75-1.5-13.5,1.88-13.5,1.88Z" transform="translate(-134.28 -27.45)"/><path class="cls-45" d="M538.25,289.15s6.75-1.87,8.25-2.62,2.25-.75,3.38.75a3,3,0,0,1-1.5,4.5c-1.88.75-6.75.37-7.88-.38A11.71,11.71,0,0,1,538.25,289.15Z" transform="translate(-134.28 -27.45)"/><path class="cls-45" d="M459.13,252.78l-9.38,13.5s3.38,3,4.5,3.37,3.75.38,4.13-1.12,4.12-7.5,3.75-6.38-1.5-3.37-1.5-3.37a1.25,1.25,0,0,1-.38-2.25C461.75,255,459.13,252.78,459.13,252.78Z" transform="translate(-134.28 -27.45)"/><path class="cls-45" d="M459.13,270l3.75-5.63s1.12-4.12,0-4.87-.38-1.5.75-3.75,1.12-3.38,3.37-1.5,4.5,3.37,4.5,3.37-7.12,9.75-7.5,11.25-2.62,3.75-2.62,3.75-3,.38-2.63-1.12Z" transform="translate(-134.28 -27.45)"/><path class="cls-14" d="M403.41,279.77s38.21,25,40.55,25.59" transform="translate(-134.28 -27.45)"/><path class="cls-17" d="M508.81,307.81" transform="translate(-134.28 -27.45)"/></g><g id="Calque_65" data-name="Calque 65"><path class="cls-17" d="M420.13,346.28l9.37-1.13,5.63-6.37,4.12-6,6-1.5s-4.5,7.87-4.5,9,.38.75,1.88,0,4.87-6.75,6-9,4.5-8.25,4.5-8.25l-2.63-.38s-2.62,4.5-2.62,5.63-24.38,5.25-24.38,5.25l.38,1.5L419,344.78l-12.37,18.75" transform="translate(-134.28 -27.45)"/><polygon class="cls-17" points="288.59 298.2 293.47 291.08 295.72 287.7 297.22 289.2 288.97 301.95 288.59 298.2"/><polygon class="cls-17" points="296.78 301.45 308.41 302.2 313.28 294.33 303.53 290.2 296.78 301.45"/></g><g id="Calque_62" data-name="Calque 62"><path class="cls-30" d="M368.09,389.65l9.57-9.84-2.53-1.69,9.28-1.13,1.74-1.86,15.41-15L417,366.59l-13.5,16.59" transform="translate(-134.28 -27.45)"/><path class="cls-29" d="M372,385.71c-1.63,1.72-3,3-3.94,3.94s-1.66,1.54-2.95,2.81c-.72.72-.86.88-2.11,2.11-.86.86-1.09,1.07-1.62,1.62s-.66.71-1.24,1.3c-.39.41-.72.73-.94.95" transform="translate(-134.28 -27.45)"/><path class="cls-30" d="M374.21,391.06q-2.44,2.73-4.92,5.69c-1.39,1.66-2.72,3.3-4,4.92" transform="translate(-134.28 -27.45)"/><path class="cls-29" d="M374,371.28l1.13,6.84,7.12-3.47s4.88-2.25,6-4.12-1.87-4.13-3-4.5S374,371.28,374,371.28Z" transform="translate(-134.28 -27.45)"/></g><g id="Calque_63-2" data-name="Calque 63"><path class="cls-30" d="M361.63,332.84c-.57-2.81-16.88-18.56-16.88-18.56l2.81,23.62s1.69.56,3.94-1.12,3.94-6.75,5.63-6.75,5.06,5.62,4.5,2.81" transform="translate(-134.28 -27.45)"/><path class="cls-30" d="M362.19,335.65l-25.88,19.69L338,367.71l11.25-9,2.25-9s-1.12,13.5.56,16.32a22.21,22.21,0,0,0,4.5,5.06L344.75,370l-22.5,21.38,1.69,4.5,14.62-14.06,25.88-17.44,1.12,4.5L351.5,381.21" transform="translate(-134.28 -27.45)"/><path class="cls-30" d="M354.88,349.71s-2.25,5.07-1.69,9,3.37,6.75,2.81,8.44,3.94-2.25,3.94-2.25.56-8.44,0-10.12S354.88,349.71,354.88,349.71Z" transform="translate(-134.28 -27.45)"/><circle class="cls-30" cx="239.59" cy="330.02" r="2.81"/><polyline class="cls-30" points="183.47 385.27 182.34 358.83 200.91 341.95"/><path class="cls-29" d="M362.19,405.4,376.81,388l14.63-1.12,7.87-10.69,5.63-3.94,2.32-2.32,4.43-4.43" transform="translate(-134.28 -27.45)"/><circle class="cls-30" cx="240" cy="330.42" r="6.33"/><line class="cls-29" x1="230.72" y1="320.72" x2="235.57" y2="325.57"/><line class="cls-29" x1="245.85" y1="333.26" x2="252.5" y2="334.97"/><line class="cls-29" x1="229.05" y1="337.36" x2="234.99" y2="333.93"/></g><g id="Calque_60" data-name="Calque 60"><line class="cls-46" x1="215.53" y1="351.52" x2="199.22" y2="370.08"/><line class="cls-46" x1="229.03" y1="360.24" x2="191.91" y2="399.61"/></g><g id="Calque_59" data-name="Calque 59"><path class="cls-47" d="M339.75,372.33c-3-2.61-9.56-13.86-9.56-13.86" transform="translate(-134.28 -27.45)"/><line class="cls-47" x1="253.16" y1="368.08" x2="204.78" y2="344.45"/></g><g id="Calque_58" data-name="Calque 58"><path class="cls-36" d="M320,317.65s-.56,11.25,0,12.94,6.19,6.75,6.19,6.75,5.62,9,6.19,10.69a37.89,37.89,0,0,0,1.68,3.93s-8.43-.56-10.68-5.62-5.07-5.63-5.07-5.63c1.69,6.19,4.5,8.44,4.5,8.44l-32.06,16.31V370s-.56,6.75-.56,9,40.5-20.81,40.5-20.81l6.75-5.06-6.19-12.94s-2.81-3.37-3.37-11.25a103.2,103.2,0,0,0-1.13-10.69Z" transform="translate(-134.28 -27.45)"/><polygon class="cls-48" points="169.97 335.2 168.28 341.95 177.28 335.77 175.03 330.7 169.97 335.2"/><line class="cls-49" x1="156.91" y1="344.33" x2="74.78" y2="388.77"/><line class="cls-49" x1="156.78" y1="349.83" x2="81.41" y2="393.14"/><path class="cls-17" d="M268.81,399.78s.57-5.07,3.94-6.75,22.5-11.82,22.5-11.82a32.35,32.35,0,0,1,5.63.57c2.81.56,6.75,1.12,6.75,1.12l-.57,2.81-10.68,5.63a87.66,87.66,0,0,0-9,1.69A88.58,88.58,0,0,0,268.81,399.78Z" transform="translate(-134.28 -27.45)"/><path class="cls-17" d="M436.44,412.71" transform="translate(-134.28 -27.45)"/><polygon class="cls-17" points="167.16 352.08 196.41 335.2 200.91 341.95 179.53 353.77 175.59 355.45 167.16 352.08"/></g><g id="Calque_46" data-name="Calque 46"><path class="cls-35" d="M296.75,252a67,67,0,0,0,21.38,4.5c11.62.37,24.75-.38,24.75-.38" transform="translate(-134.28 -27.45)"/><path class="cls-35" d="M342.88,256.15c.21.25,3.62,4.08,8.25,3.38a9.41,9.41,0,0,0,4.7-2.31A9.94,9.94,0,0,0,357.5,255c1.13-1.88-.37-2.63,5.25-4.13s7.13-2.25,9-2.62a4.16,4.16,0,0,1,3,.37l1.13,4.13" transform="translate(-134.28 -27.45)"/><path class="cls-35" d="M318.5,273s-.37-9.38.38-10.5,1.5-5.63,1.5-5.63" transform="translate(-134.28 -27.45)"/><path class="cls-35" d="M320,273.39l4.44.39,3.33-3.84a16.72,16.72,0,0,1,5.18-4.6l2.21,2.3c-2.21-6.68-2.87-8.45-3-8.43s1,11.79,7,14.18c2.18.87,5.8-.18,12.95-2.3,0,0,3-.81,7-2.3,6.56-2.41,7.58-3.55,8.13-4.6,1.07-2,.18-3.47,1.48-5s3.45-1.64,5.18-1.53" transform="translate(-134.28 -27.45)"/></g><g id="Calque_41" data-name="Calque 41"><polyline class="cls-29" points="113.72 103.45 99.09 102.7 118.22 81.33"/></g><g id="Calque_42" data-name="Calque 42"><path class="cls-50" d="M246.13,199.53S254,216,257,219l5.63,5.62,1.12,1.5-1.5,5.25s0,.75,2.25,3a57.11,57.11,0,0,0,6.75,5.25" transform="translate(-134.28 -27.45)"/><path class="cls-50" d="M254.47,187.15" transform="translate(-134.28 -27.45)"/><line class="cls-51" x1="128.84" y1="158.85" x2="119.84" y2="158.68"/></g><g id="Calque_30" data-name="Calque 30"><path class="cls-52" d="M195.81,143.59a144,144,0,0,1,12.94-25.88,124.3,124.3,0,0,1,13.56-17.56,79,79,0,0,1,8.07-7.31c3-2.42,5.53-4.14,6.93-5.06,2.5-1.65,4.4-2.72,6.57-3.94.82-.47,3.23-1.83,8.32-4.39,1.7-.85,5.83-2.93,8.58-4.21a146.07,146.07,0,0,1,20.81-7.59" transform="translate(-134.28 -27.45)"/></g><g id="Calque_52" data-name="Calque 52"><path class="cls-53" d="M394,196.9s8.25-12,10.5-13.5l2.25-1.5" transform="translate(-134.28 -27.45)"/></g><g id="Calque_54" data-name="Calque 54"><path class="cls-54" d="M319.38,274.9l.75,1.88s13.12.75,17.62.37S375.63,271,375.63,271" transform="translate(-134.28 -27.45)"/><path class="cls-5" d="M319.63,282a11.89,11.89,0,0,0-.38,3l9.75,1.5,2.25,12.75,2.25-1.13L332,286.9l9.75-1.5,6.38-.37-.38-3.38Z" transform="translate(-134.28 -27.45)"/></g><g id="Calque_53" data-name="Calque 53"><path class="cls-29" d="M319.25,303.4,323,319.53,311.75,339a53.09,53.09,0,0,1-10.12,2.25c-4.5.37-5.25.75-5.25.75l21.89-40.83,14.11-26.3L322.63,270s-10.5-6.38-12.38-7.13-1.5-18-1.5-18" transform="translate(-134.28 -27.45)"/><path class="cls-29" d="M320.75,270s-14.25,20.62-13.5,20.62" transform="translate(-134.28 -27.45)"/><line class="cls-29" x1="192.84" y1="245.95" x2="169.22" y2="285.33"/><path class="cls-29" d="M320.38,252l1.87,7.12,22.13,12S369.13,279,372.13,279s9.37-.38,9.37-.38" transform="translate(-134.28 -27.45)"/><polyline class="cls-29" points="226.22 248.95 223.59 254.58 214.97 251.95 231.84 257.95"/></g><g id="Calque_51" data-name="Calque 51"><path class="cls-55" d="M383.84,216.82a70.37,70.37,0,0,0,10.55-30.94" transform="translate(-134.28 -27.45)"/></g><g id="Calque_31" data-name="Calque 31"><path class="cls-56" d="M223.25,183.71a74,74,0,0,1,.49-11.11A90,90,0,0,1,226,161.13c.47-1.89,1.22-4.92,2.51-8.85a109.44,109.44,0,0,1,4-10.48c2.18-4.85,3.41-7.6,5.91-10.83a35.65,35.65,0,0,1,5.34-5.55" transform="translate(-134.28 -27.45)"/><line class="cls-57" x1="118.08" y1="121.37" x2="108.98" y2="116.91"/><path class="cls-58" d="M249.13,174.78,231.88,177s1.12-18.38,4.5-24.38,8.25-16.5,8.25-16.5" transform="translate(-134.28 -27.45)"/><line class="cls-58" x1="107.62" y1="148.11" x2="109.69" y2="127.8"/></g><g id="Calque_32" data-name="Calque 32"><line class="cls-59" x1="100.59" y1="86.95" x2="129.84" y2="116.95"/><path class="cls-60" d="M262.25,130.9a30.71,30.71,0,0,1,5.63,1.88" transform="translate(-134.28 -27.45)"/><path class="cls-59" d="M254.75,123.78s5.25,6.75,7.5,7.12" transform="translate(-134.28 -27.45)"/><line class="cls-60" x1="132.44" y1="97.49" x2="136.97" y2="101.58"/><line class="cls-61" x1="126.33" y1="92.87" x2="131.44" y2="97.49"/><line class="cls-60" x1="125.34" y1="91.08" x2="127.33" y2="92.87"/><path class="cls-12" d="M267.63,96.15,274,107.78s4.13,4.5,3.75,7.5a21,21,0,0,1-2.25,6.37l3.38,6.75L280,131l-14.62,14.25" transform="translate(-134.28 -27.45)"/><polyline class="cls-18" points="120.09 64.83 132.47 78.7 138.47 87.33"/></g><g id="Calque_36" data-name="Calque 36"><path class="cls-62" d="M152.75,32.65S177.5,54,183.13,60.4a75.51,75.51,0,0,0,10.12,9.75" transform="translate(-134.28 -27.45)"/><path class="cls-63" d="M198.88,94.15l-6.38-6.37s2.81-18.74,2.72-17.06L207,84.2" transform="translate(-134.28 -27.45)"/><polyline class="cls-62" points="34.72 12.95 61.34 40.7 60.22 45.95"/><path class="cls-62" d="M189.88,80.65l-9.38-9s-1.12-9.75-1.87-12L176.75,54" transform="translate(-134.28 -27.45)"/><line class="cls-62" x1="45.09" y1="53.33" x2="56.34" y2="62.33"/><line class="cls-62" x1="72.16" y1="59.58" x2="88.03" y2="72.7"/></g><g id="Calque_37" data-name="Calque 37"><path class="cls-64" d="M230.38,66a73.57,73.57,0,0,0-14.63-18.38,70.58,70.58,0,0,0-6-4.87" transform="translate(-134.28 -27.45)"/><path class="cls-65" d="M192.75,32.15,202.38,37" transform="translate(-134.28 -27.45)"/><path class="cls-54" d="M208.5,56.4s13.88,16.5,15,16.88" transform="translate(-134.28 -27.45)"/><polyline class="cls-66" points="89.9 8.41 85.09 7.45 98.97 10.45"/><line class="cls-54" x1="106.22" y1="33.7" x2="84.9" y2="8.41"/><line class="cls-67" x1="109.59" y1="32.58" x2="98.72" y2="12.7"/></g><g id="Calque_33" data-name="Calque 33"><path class="cls-68" d="M173.38,144s-4.13-3.38-4.13-5.25.38-5.25,1.13-6.38,6-1.87,7.12-.75" transform="translate(-134.28 -27.45)"/></g><g id="Calque_39" data-name="Calque 39"><path class="cls-69" d="M242,64.9,245.38,69s16.5-7.13,29.25-10.88S291.5,52.53,302.38,51s25.87-2.63,25.87-2.63" transform="translate(-134.28 -27.45)"/><path class="cls-5" d="M251.38,55.15l-7.13-12.37s-.37-1.5,3-1.5,31.5,5.25,31.5,5.25l-25.87,9" transform="translate(-134.28 -27.45)"/><path class="cls-5" d="M383,214.85" transform="translate(-134.28 -27.45)"/></g><g id="Calque_38" data-name="Calque 38"><path class="cls-29" d="M227,51.78l33.84,19.68,5.63,3c1-1.78,1.92-3.84,2.91-5.34a1,1,0,0,0-.37-1.47c-6.52-3.56-13-6.66-19.53-10.22L230.75,46.15l1.5-4.12,10.88,5.62,3,1.5,1.5,5.25" transform="translate(-134.28 -27.45)"/></g><g id="Calque_34" data-name="Calque 34"><path class="cls-70" d="M254.75,170.65l7.13-16.87,6.37,5.25s3.38-.75,2.25,2.62-3.75,8.25-3.37,11.63.75,11.62,2.25,17.25,8.25,16.87,11.62,20.62a30.05,30.05,0,0,1,4.13,5.25" transform="translate(-134.28 -27.45)"/><path class="cls-70" d="M263.47,161a49.94,49.94,0,0,0-2.72,17.29" transform="translate(-134.28 -27.45)"/></g><g id="Calque_2" data-name="Calque 2"><path class="cls-16" d="M168.41,172.25" transform="translate(-134.28 -27.45)"/><path class="cls-16" d="M180.69,133" transform="translate(-134.28 -27.45)"/><path class="cls-71" d="M286.88,308.09c-3.83-1-36.34-9.34-57.75-23.72a181.87,181.87,0,0,1-15-11.44,152.23,152.23,0,0,1-15.37-15.19,113.15,113.15,0,0,1-15.71-21.52,98.12,98.12,0,0,1-6.36-14.14,103.7,103.7,0,0,1-5.19-22.55,136.75,136.75,0,0,1-1.14-17.44,138.82,138.82,0,0,1,2-27,128.66,128.66,0,0,1,4.17-16.89,116.71,116.71,0,0,1,5.12-13.3c.54-1.18,2.31-5,5.06-9.75,1.83-3.19,3.58-5.89,5.06-8.06,1.1-1.63,2.6-3.77,4.5-6.19,0,0,3.53-4.51,7.88-9,16.8-17.36,37.12-28.78,37.12-28.78s34-19.46,77.63-21.38c10.93-.48,14.06-.6,14.06-.58s-3.2.18-5.63.3" transform="translate(-134.28 -27.45)"/></g><g id="Calque_13" data-name="Calque 13"><path class="cls-8" d="M306.13,240s14.62,2.25,16.5,2.62" transform="translate(-134.28 -27.45)"/><path class="cls-8" d="M316.63,246.78s5.25,3.75,7.87,1.5,2.63-4.88,6-5.25,9.38-.38,15-1.88,16.5-4.12,20.63-6.37,10.12-5.63,10.12-5.63" transform="translate(-134.28 -27.45)"/><path class="cls-8" d="M332,255.4s-.75-5.25,0-6.75,20.63-3.37,20.63-3.37" transform="translate(-134.28 -27.45)"/></g><g id="Calque_3" data-name="Calque 3"><path class="cls-72" d="M276.55,280.81" transform="translate(-134.28 -27.45)"/><path class="cls-8" d="M368,248.28s-1.5-9,0-10.13,13.5-7.87,13.5-7.87,3.75-2.25,3.38-4.13-1.5-9.75-1.5-9.75a70.6,70.6,0,0,1-28.73,17.14c-15.94,4.84-29.12,2.45-37.77.77l-1.13-.22a102.24,102.24,0,0,1-22.64-7.75,116.47,116.47,0,0,1-14-8,39.09,39.09,0,0,1-5.84-4.78,36.18,36.18,0,0,1-2.81-3.17" transform="translate(-134.28 -27.45)"/><path class="cls-18" d="M504.32,250.61a72.35,72.35,0,0,1-18-1.78,85.74,85.74,0,0,1-10.75-3.1,107.54,107.54,0,0,1-18.82-8.56,101,101,0,0,1-12.42-8.57" transform="translate(-134.28 -27.45)"/><path class="cls-73" d="M265.16,292.9a153.52,153.52,0,0,1-14.35-6.47c-.83-.44-3-1.63-5.62-3.09-2.22-1.25-4-2.31-4.72-2.71-5.05-3-10.66-7-12.72-8.54a136.75,136.75,0,0,1-35.44-39.38A108,108,0,0,1,183,209.37a117.74,117.74,0,0,1-3.65-25.88,127.53,127.53,0,0,1,5.06-40.5c2.43-8.16,6.51-21.34,17.15-35.15a94.93,94.93,0,0,1,12.47-13.31" transform="translate(-134.28 -27.45)"/></g><g id="Calque_5" data-name="Calque 5"><path class="cls-30" d="M375.88,268.43a143.36,143.36,0,0,1-20.44-4.22C343.59,260.86,305,250,282.21,217.07c-29.48-42.54-13.33-94.19-11.15-100.79" transform="translate(-134.28 -27.45)"/><path class="cls-28" d="M375.88,268.43" transform="translate(-134.28 -27.45)"/><path class="cls-30" d="M538.63,58.53A137.36,137.36,0,0,1,564.5,105a133.88,133.88,0,0,1,6.38,47.25c-.46,9.13-1.13,20.49-6.75,33.75-3.35,7.87-8.37,16.27-18.38,27-32.91,35.26-75.57,48.28-80.77,49.79a184.94,184.94,0,0,1-55.17,7.3" transform="translate(-134.28 -27.45)"/></g><g id="Calque_11" data-name="Calque 11"><path class="cls-74" d="M243.5,191.28s-13.87-10.5-15-12-34.5,1.5-34.5,1.5,50.25-3.75,51.75-4.13,4.13,4.13,10.13,3.38A79.56,79.56,0,0,0,266,178.15" transform="translate(-134.28 -27.45)"/></g><g id="Calque_20" data-name="Calque 20"><path class="cls-74" d="M308.38,251.65l-22.5-17.25s-6.75,0-7.13-3.37S262.25,201.4,260,197.65s-11.25-23.25-12-28.87c-.72-5.43-.75-23-.75-25.65v-.23s0-4.22.28-8.16A123.14,123.14,0,0,1,251.19,114c.27-1,1-3.88,2.2-7.54,1-3.15,1.82-5.33,3.33-9.34,1.06-2.82,2.38-6.34,4.31-11,2.21-5.29,1.69-3.6,3.85-8.72.88-2.1,2.19-4,3.09-6.09.55-1.29.9-2.25,1.78-2.53s1.7.45,3.84,1.78c3.71,2.29,5.35,2.4,5.44,3.56.05.64-.42.9-1.78,2.72A36,36,0,0,0,275.19,80C273.12,83.14,271,86.61,269,90.4A134.3,134.3,0,0,0,261.13,108a75.26,75.26,0,0,0-3,9,80.22,80.22,0,0,0-2.63,24.37v1.88l-29.25,1.5-4.5-.38,3-4.5s-1.5-1.5-2.62-.75a67.2,67.2,0,0,0-5.25,5.25l-16.13,1.13s6.38-7.5,7.88-8.63a12.22,12.22,0,0,1,8.25-1.87c3.75.37,25.5.37,25.5.37l4.12-.37" transform="translate(-134.28 -27.45)"/></g><g id="Calque_21" data-name="Calque 21"><path class="cls-74" d="M167.75,157.15S170,153,173,152.65s14.63.38,14.63.38l12-1.5,1.5-.38a15.4,15.4,0,0,1,5.25,3.75A20.33,20.33,0,0,0,212,159l-17.62,1.5-4.5-3.75Z" transform="translate(-134.28 -27.45)"/></g><g id="Calque_81" data-name="Calque 81"><path class="cls-75" d="M223.39,184.67c.05.14,36.89-4.85,36.89-4.85" transform="translate(-134.28 -27.45)"/></g><g id="Calque_23" data-name="Calque 23"><path class="cls-30" d="M273.13,204.78c-3.75-4.13-12.38-24.75-12.38-24.75L152.38,191.28l-11.63-6" transform="translate(-134.28 -27.45)"/><polyline class="cls-30" points="7.97 158.2 42.84 153.7 52.22 159.33 118.22 152.95"/><polyline class="cls-30" points="18.47 139.83 8.72 140.58 35.34 118.08 66.47 118.08 70.22 113.58 1.97 113.95"/><line class="cls-30" x1="3.47" y1="119.58" x2="35.34" y2="118.08"/></g><g id="Calque_24" data-name="Calque 24"><line class="cls-30" x1="112.97" y1="133.83" x2="89.72" y2="135.7"/><polyline class="cls-30" points="112.22 122.95 74.34 124.83 80.34 131.95 112.22 129.33"/><line class="cls-30" x1="100.22" y1="162.33" x2="106.59" y2="162.33"/><polyline class="cls-30" points="102.47 155.58 111.84 162.7 120.84 160.83"/></g><g id="Calque_10" data-name="Calque 10"><path class="cls-11" d="M182,193.9c21.84-2.5,30.06-3.24,33.09-3.37,4.21-.19,5.71-.32,8.72-.57,1.87-.15,3-.28,3-.28,1.83-.2,2.07-.28,2.53-.28,2.21,0,3.8,1.82,4.76,2.63,3.62,3.06,10.18.89,16.12.37,7.2-.63,9.95-2,11.11-1.18a1.72,1.72,0,0,1,.52.81c3.29,7.57,4.93,11.36,5.25,12.49.94,3.41,3.87,8.28,12.93,14.27" transform="translate(-134.28 -27.45)"/></g><g id="Calque_6" data-name="Calque 6"><path class="cls-1" d="M275.75,275.65l8.63-3.75L302,239.28l-4.5-4.13s-20.25,35.25-23.25,41.63l-.51,1.06c-2.77,5.73-11.91,22.53-8.86,16.94" transform="translate(-134.28 -27.45)"/></g><g id="Calque_55" data-name="Calque 55"><path class="cls-29" d="M384.88,283.15a11,11,0,0,1,.37,4.5c-.75,7.21-6.84,15.37-7.12,15.75-6,7.87-7.36,6.53-10.13,11.63-1.22,2.24-4.49,8.25-3,15.37,1.1,5.29,4.3,8.65,7.13,11.63a33.6,33.6,0,0,0,10.5,7.5A30.13,30.13,0,0,0,398,352.15a28.89,28.89,0,0,0,16.88-7.5,25.23,25.23,0,0,0,6.75-10.12,23.3,23.3,0,0,0,.75-13.5c-.87-3.3-2.29-5.34-4.88-9-6.4-9-10.91-10.55-14.62-18-1.33-2.65-2.81-4.73-2.63-7.5.22-3.34,2.32-5.53,3.83-7.39,4-4.91,8-12.42,8.17-17.55.28-7.56-7.32-18.94-18.94-18.94s-19.1,11.28-18.93,18.94c.11,5.17,3.83,13.21,7.39,16.74A11.5,11.5,0,0,1,384.88,283.15Z" transform="translate(-134.28 -27.45)"/><path class="cls-29" d="M406.44,307.15c2,2.36,10.05,11.85,10.31,19.13.31,8.66-10.21,20.25-23.25,20.25-12.83,0-23.48-11.38-23.25-20.25.18-6.88,7-15.59,8.81-17.63.24-.27,1-1.07,1.88-2.25a44.31,44.31,0,0,0,4.12-6.75c3.41-6.35,3.17-5.25,3.75-6.75.67-1.74,2.4-6.24,1.13-10.87-.68-2.45-1.77-3.39-4.46-6.86-5.25-6.77-7.88-10.16-8.1-13-.49-6,6.58-15,16.12-15s16.62,8.93,16.13,15c-.39,4.73-5.59,10.21-8.41,13.18-1.76,1.84-3.39,3.22-4.34,5.95a14.73,14.73,0,0,0-.19,8.06c.61,3.14,2.22,6,5.44,11.62a37.06,37.06,0,0,0,2.81,4.32C405.69,306.28,406.3,307,406.44,307.15Z" transform="translate(-134.28 -27.45)"/><path class="cls-29" d="M429.69,301" transform="translate(-134.28 -27.45)"/><ellipse class="cls-29" cx="259.34" cy="298.77" rx="19.13" ry="16.31"/><ellipse class="cls-29" cx="259.22" cy="299.58" rx="12.94" ry="10.69"/><ellipse class="cls-29" cx="259.41" cy="299.77" rx="7.87" ry="7.13"/><ellipse class="cls-29" cx="259.31" cy="233.58" rx="12.09" ry="10.69"/></g><g id="Calque_80" data-name="Calque 80"><line class="cls-8" x1="135.25" y1="220.61" x2="143.97" y2="225.39"/></g><g id="Calque_7" data-name="Calque 7"><path class="cls-1" d="M252.88,283.15s10.12-1.5,11.62-3,22.88-41.62,22.88-41.62l2.25-5.25s-12-7.5-14.25-9.38-7.13,0-10.13-2.25S254,207,251.75,202.15l-2.25-4.87s-10.87,3.37-15.75,3.75-7.5.75-7.5.75" transform="translate(-134.28 -27.45)"/></g><g id="Calque_8" data-name="Calque 8"><path class="cls-5" d="M252.64,281.23s3.24-6.47,4.08-8a33.56,33.56,0,0,0,1.55-3.37S240,258.59,239.84,257.46s-.14-9.28-.14-9.28-13.78-15.47-14.48-16.73-4.92-6.75-5.49-8.3-.7-2.53,0-2.81,3.94.14,6.33.7l10.13,2.39a38.6,38.6,0,0,1,2.81,4.22c1.27,2.25,5.06,4.92,5.06,4.92s.71.56.42,2.39-.84,11.11-.84,11.53.28.71,1.41,1.83,19.26,14.35,19.26,14.35,1,.28.57,2-.43,2.25-1.27,2.82-7.31,13.36-7.31,13.36" transform="translate(-134.28 -27.45)"/><path class="cls-5" d="M266.14,261.26l-20.25-13.08s-1.12-8.3-.42-9.84a10.57,10.57,0,0,0,1-3.1c.14-.84-8.29-12.37-8.29-12.37s-7.6-11.81-8-13.08-.42-1.55.14-2,2.25,0,2.95,0,3.66,4.22,5.35,6.75,7.17,9.71,9,11.39a149.75,149.75,0,0,1,9.7,12.1,12.48,12.48,0,0,0,.7,1.4s-.56,4.64-.56,5.21,12.66,11.39,12.66,11.39a2.78,2.78,0,0,1-.42,2.39,21.09,21.09,0,0,1-2.53,3.09Z" transform="translate(-134.28 -27.45)"/><path class="cls-5" d="M238,206.42s5.34,11.53,6.18,13.07,2.39,4.22,3,4.5,2.53.57,2.81-.14,1.26-2.67,1.83-3.93,1-2,.7-2.39-1.27-.57-1.83-1.83-4.92-11-4.92-11a6,6,0,0,0-3.09-.56A28.4,28.4,0,0,0,238,206.42Z" transform="translate(-134.28 -27.45)"/><path class="cls-5" d="M214.11,211.34l3.94,7.31L232,221.88s1.26-1.4.7-2.39-5.48-9.84-5.48-9.84l-2.39-.7Z" transform="translate(-134.28 -27.45)"/><path class="cls-76" d="M268.53,248.46" transform="translate(-134.28 -27.45)"/></g><g id="Calque_9" data-name="Calque 9"><path class="cls-8" d="M219.13,250.15s-15.75-23.62-20.63-34.87-5.62-15-5.62-15" transform="translate(-134.28 -27.45)"/><path class="cls-8" d="M209,233.28c.87-.55,2.3-1.45,4.13-2.54s2.46-1.42,2.74-2.11c.42-1-.13-1.93-1.62-5.13-.83-1.77-1.58-3.57-2.39-5.34-1.56-3.42-1.57-3.55-2.48-5.51-.66-1.39-1.54-3.23-2.65-5.39" transform="translate(-134.28 -27.45)"/></g><g id="Calque_12" data-name="Calque 12"><path class="cls-18" d="M480.13,246.78a5.83,5.83,0,0,0,6-1.88c2.62-3,1.5-4.87,4.12-5.25A111.51,111.51,0,0,0,504.88,237c7.5-1.88,12.75-3,17.62-5.63" transform="translate(-134.28 -27.45)"/></g><g id="suite_nuc" data-name="suite nuc"><line class="cls-77" x1="243.72" y1="180.7" x2="223.09" y2="172.45"/></g><g id="Calque_16" data-name="Calque 16"><polyline class="cls-78" points="246.47 172.08 218.96 159.54 217.97 155.95"/></g><g id="Calque_17" data-name="Calque 17"><polyline class="cls-78" points="182.85 142.15 210.18 155.07 211.12 158.66"/></g><g id="Calque_18" data-name="Calque 18"><path class="cls-79" d="M409.44,166.9c0,.42-29.67-25.17-30.38-25.59" transform="translate(-134.28 -27.45)"/><path class="cls-18" d="M410.56,169.43s1,3.52,2.82,3.38,1.82-.28,2.1-1.55-1.4-2.95-2.53-2.53" transform="translate(-134.28 -27.45)"/></g><g id="Calque_19" data-name="Calque 19"><path class="cls-17" d="M409.5,163.15l-12.75-12.37s-1.12-2.63,3.38-3,12.37,4.5,14.25,6.75a12.06,12.06,0,0,0,3.37,3Z" transform="translate(-134.28 -27.45)"/></g><g id="arrete_rose_nuce" data-name="arrete rose nuce"><path class="cls-80" d="M402.74,176a118.37,118.37,0,0,1,13.45-13A145.32,145.32,0,0,1,433,150.66c1.33-.76,2.44-1.36,3.21-1.76l3.09-1.69" transform="translate(-134.28 -27.45)"/><path class="cls-77" d="M374,219.4l13.13-25.12s7.68-11.07,14.43-17.25l1.18-1.07" transform="translate(-134.28 -27.45)"/></g><g id="Calque_26" data-name="Calque 26"><line class="cls-81" x1="262.28" y1="189.88" x2="269.72" y2="178.45"/><polyline class="cls-82" points="259.4 194.9 259.22 194.58 262.28 189.88"/><line class="cls-28" x1="259.65" y1="195.34" x2="259.4" y2="194.9"/><line class="cls-16" x1="260.63" y1="197.05" x2="260.38" y2="196.62"/><line class="cls-28" x1="262.06" y1="199.55" x2="261.85" y2="199.18"/><line class="cls-28" x1="262.95" y1="201.11" x2="262.76" y2="200.77"/><polyline class="cls-12" points="244.84 217.95 260.59 204.83 264.72 201.45 263.95 200.11"/></g><g id="Calque_47" data-name="Calque 47"><path class="cls-83" d="M350.75,163.53" transform="translate(-134.28 -27.45)"/><path class="cls-5" d="M401,174.78l-6,6.37s-5.62.75-5.25-1.87,3-6,3-6-4.87,1.5-6.75,1.87-4.87-2.25-3-2.25a18.46,18.46,0,0,0,4.88-1.12s-1.88-2.63-4.13-1.5-4.12,3.37-6.75,2.25-60.37-33-60.37-33-2.63-2.63,0-2.25,22.5,3,22.5,3H344l6.38,3.37L351.5,147l31.88,15.75.37,2.25-30-13.88v3.38l22.13,11.25,6.75,1.12,7.12-.75Z" transform="translate(-134.28 -27.45)"/></g><g id="Calque_49" data-name="Calque 49"><path class="cls-17" d="M388.63,154.53c.37,1.12,14.62,12,14.62,12v5.62c0,1.13-12.75-7.5-12.75-7.5Z" transform="translate(-134.28 -27.45)"/></g><g id="Calque_50" data-name="Calque 50"><path class="cls-8" d="M435.36,203.32,431,216.78l-10.5,16.5c-3.37,4.5-5.62,4.5-11.25,4.87s-6.75,3-6.75,3l-18.75,12-4.12-7.5" transform="translate(-134.28 -27.45)"/><line class="cls-8" x1="283.97" y1="178.83" x2="298.97" y2="184.08"/><path class="cls-8" d="M413.73,228.17l.5-.62a45.69,45.69,0,0,0,4.43-7c5.44-9.85,5.8-11,5.8-11" transform="translate(-134.28 -27.45)"/><path class="cls-5" d="M411.73,205.89c-.51,1.51-1,3-1.55,4.55q-1.85,5.35-3.77,10.53l2.11,3.62,3.11.87q3.64-10.29,7.31-20.58Z" transform="translate(-134.28 -27.45)"/><path class="cls-84" d="M482,195.4" transform="translate(-134.28 -27.45)"/></g><g id="head"><path class="cls-30" d="M416.84,207.12s-7.12,14.25-7.87,17.62-4.13,15.38-4.13,15.38" transform="translate(-134.28 -27.45)"/><path class="cls-30" d="M373.63,237.63l10.12-.37s3-7.5,4.5-12,10.88-24.38,10.88-24.38l2.25-3-10.5-6q5.31,3,10.78,6.19,8.05,4.77,15.47,9.56" transform="translate(-134.28 -27.45)"/><path class="cls-30" d="M396.27,220.62c-1.66,5.38-3.63,12.44-3.89,14.58" transform="translate(-134.28 -27.45)"/><path class="cls-30" d="M406.16,201.12s-6.75,10.5-8.25,14.62c-.44,1.2-1.06,3.11-1.73,5.3" transform="translate(-134.28 -27.45)"/><path class="cls-30" d="M409.25,202.4s-7.5,12.75-7.5,13.88,4.88,1.87,4.88,1.87l7.87-12.75" transform="translate(-134.28 -27.45)"/><polyline class="cls-30" points="267.34 210.95 271.09 194.83 266.22 193.33 265.47 195.2 264.36 199.33"/><line class="cls-30" x1="261.34" y1="210.58" x2="264.36" y2="199.33"/><path class="cls-30" d="M437,203.56s-6.19-1-7.59-1.41a68,68,0,0,1-7.32-2.34c-.18-.28-3.28-2.16-5.15-4.32s-3.19-4.4-2.91-6.56a19.28,19.28,0,0,1,1.69-6.75,14.35,14.35,0,0,1,2.07-3.67,10.59,10.59,0,0,1,1.77-1.48,18,18,0,0,1,3.28-1.79,17.54,17.54,0,0,1,2.82-1.12,12.13,12.13,0,0,1,4.22-.09,25.28,25.28,0,0,1,5.71.84,12.9,12.9,0,0,1,4.88,2.34,8.12,8.12,0,0,1,2.34,2.44,16.14,16.14,0,0,1,1.32,2.53,32.72,32.72,0,0,1,.84,3.47,13.18,13.18,0,0,0,.66,3.28,42.85,42.85,0,0,1,1.21,4.31,31.83,31.83,0,0,0,.85,3.57,31.08,31.08,0,0,0,1.12,3.56c.47.94,1.69,3.09,2.53,3.56a16.29,16.29,0,0,0,4.41,1.69c1.88.37,4.13.94,5.81,1.41a7.42,7.42,0,0,1,3.1,1.31c.47.47,1.31,1.59,1.68,2.06a3.21,3.21,0,0,1,.94,1.78c.1.85.28,1.6.28,1.88a5.48,5.48,0,0,1,0,1.87,9.86,9.86,0,0,1-1.22,3.56,7.52,7.52,0,0,1-2.25,2.54,12.18,12.18,0,0,1-2.53,1.5,25.3,25.3,0,0,1-2.81,1.12,5.58,5.58,0,0,1-2.62.28,9.63,9.63,0,0,1-4.88-1.59c-1.5-1.13-3.19-2.25-3.94-3.75s-1.4-2-1.68-3.19a21.79,21.79,0,0,1-.47-4.31c0-1.22.47-2.06,0-3.1a6.14,6.14,0,0,0-1.6-2.53,9.55,9.55,0,0,0-2.53-1.87C440.28,204.31,437,203.56,437,203.56Z" transform="translate(-134.28 -27.45)"/><ellipse class="cls-30" cx="296.18" cy="160.34" rx="9.28" ry="8.58"/><path class="cls-30" d="M441.18,181.16c-1.57-2.3-5.79-4.65-10.37-4.56-6.6.14-12.69,5.36-13.34,10.3a9.9,9.9,0,0,0,.41,4.4,10.23,10.23,0,0,0,2.74,4.22,12.23,12.23,0,0,0,4.36,2.67,28.22,28.22,0,0,0,3.77,1.05c1.07.25,1.8.39,2.34.5.94.18,4,.86,7.32,1.82a24.8,24.8,0,0,1,5.2,2,9.41,9.41,0,0,1,3.23,2.39c1.16,1.5,1.36,3.13,1.69,6.26a15.51,15.51,0,0,0,.28,4,6.77,6.77,0,0,0,.47,1.28,10.49,10.49,0,0,0,8.67,4.85,7.06,7.06,0,0,0,4-1.95,7.26,7.26,0,0,0,2-3.54,6.82,6.82,0,0,0,.07-3.51,6.93,6.93,0,0,0-2.34-3.54c-1.48-1.24-3.11-1.61-6.31-2.3-3-.64-3.55-.42-4.92-1.19a8.89,8.89,0,0,1-3-3c-1-1.52-1.43-3.09-2.18-6.18-.54-2.21-.85-4.07-1-4.93-.27-1.67-.36-2.56-.77-4.85a17.24,17.24,0,0,0-.92-3.65A14.87,14.87,0,0,0,441.18,181.16Z" transform="translate(-134.28 -27.45)"/><circle class="cls-30" cx="322.23" cy="187.65" r="5.03"/><circle class="cls-30" cx="296.11" cy="159.84" r="5.27"/><circle class="cls-30" cx="323.32" cy="187.69" r="1.97"/><path class="cls-30" d="M421.25,173.28" transform="translate(-134.28 -27.45)"/><line class="cls-85" x1="271.22" y1="214.83" x2="286.97" y2="230.95"/><polygon class="cls-86" points="276.47 214.83 289.22 229.08 294.09 224.95 282.84 212.2 276.47 214.83"/><polygon class="cls-86" points="285.09 211.08 297.84 223.83 298.59 222.33 286.59 209.95 285.09 211.08"/><line class="cls-18" x1="319.22" y1="208.08" x2="311.91" y2="219.14"/><path class="cls-24" d="M413.75,256.53s0,.28,0,.76c.07,2.22.25,8.62-.22,9.55-.56,1.12,3.75-3,4.13-3.38s-2.81-4.31-2.81-4.31Z" transform="translate(-134.28 -27.45)"/></g></svg>